#!OML:ASF H:\Terrain\Patient Classification 1\Terrain2\Thursday\justin.ASF
:FULLY-SPECIFIED
:DEGREES
1211
root 20.4262 17.3823 -22.0159 388.584 86.1847 28.8546
lowerback 6.0817 1.19025 -2.83211
upperback 4.02433 1.54736 1.45812
thorax 0.627868 0.749158 3.00649
lowerneck -13.2958 -3.87417 -8.96765
upperneck 38.7312 -2.58894 3.20481
head 16.3217 -1.40779 2.71751
rclavicle 1.28216e-014 -6.36111e-015
rhumerus -28.7245 -12.0636 -79.445
rradius 30.6358
rwrist -10.7183
rhand -19.7763 12.841
rfingers 7.12502
rthumb 6.55579 -17.0375
lclavicle 1.28216e-014 -6.36111e-015
lhumerus -32.9396 6.3379 85.349
lradius 27.2677
lwrist 2.19039
lhand -17.7761 21.4666
lfingers 7.12502
lthumb 8.4864 51.2761
rfemur -31.008 -4.31844 15.5735
rtibia 65.717
rfoot -11.4618 -1.03809
rtoes -0.982023
lfemur 1.5307 -0.0629618 -24.6016
ltibia 17.3835
lfoot -14.7006 -8.21281
ltoes 16.2804
1212
root 20.4752 17.3893 -22.025 389.392 86.242 29.6091
lowerback 6.06887 1.08566 -2.8492
upperback 3.99578 1.40668 1.47131
thorax 0.61514 0.678468 3.03777
lowerneck -13.2154 -3.7563 -8.93517
upperneck 38.707 -2.40933 3.15854
head 16.2711 -1.33443 2.72201
rclavicle 3.27995e-015 1.43125e-014
rhumerus -28.9383 -11.6436 -79.5761
rradius 30.6565
rwrist -11.285
rhand -19.6646 12.5727
rfingers 7.12502
rthumb 6.66363 -17.3025
lclavicle 3.27995e-015 1.43125e-014
lhumerus -32.8865 6.68414 85.2281
lradius 27.1183
lwrist 1.78177
lhand -17.5249 21.4022
lfingers 7.12502
lthumb 8.72883 51.2017
rfemur -31.7144 -4.65859 15.7415
rtibia 64.9779
rfoot -12.34 -1.97805
rtoes -2.62772
lfemur 1.98711 -0.313523 -24.7085
ltibia 16.7393
lfoot -14.4807 -7.95305
ltoes 16.1721
1213
root 20.5239 17.3923 -22.0362 390.799 86.2483 30.9691
lowerback 6.16753 1.0542 -2.92285
upperback 3.9293 1.35697 1.49884
thorax 0.493456 0.654396 3.10796
lowerneck -13.3142 -3.76954 -9.17791
upperneck 38.9197 -2.39961 3.35258
head 16.418 -1.33923 2.86164
rclavicle -9.93923e-017 5.56597e-015
rhumerus -29.4238 -11.5206 -79.5512
rradius 30.9585
rwrist -11.6767
rhand -19.8284 12.3892
rfingers 7.12502
rthumb 6.50547 -17.4909
lclavicle -9.93923e-017 5.56597e-015
lhumerus -32.8446 6.81005 85.229
lradius 26.9697
lwrist 1.49703
lhand -17.3034 21.499
lfingers 7.12502
lthumb 8.94258 51.2895
rfemur -32.4203 -5.26003 15.8268
rtibia 63.9548
rfoot -12.1766 -3.10495
rtoes -4.04819
lfemur 2.39068 -0.709356 -24.9182
ltibia 16.2146
lfoot -14.3252 -7.62311
ltoes 16.729
1214
root 20.5733 17.39 -22.0449 389.24 86.2064 29.4643
lowerback 6.34882 1.1185 -2.90072
upperback 3.90341 1.43971 1.56784
thorax 0.358809 0.698522 3.15808
lowerneck -13.4254 -3.84816 -9.5305
upperneck 39.1213 -2.52437 3.72255
head 16.582 -1.39243 3.07715
rclavicle -8.34896e-015 -1.90833e-014
rhumerus -29.8978 -11.8455 -79.3028
rradius 31.1733
rwrist -11.7135
rhand -19.5836 12.3058
rfingers 7.12502
rthumb 6.74178 -17.5669
lclavicle -8.34896e-015 -1.90833e-014
lhumerus -32.8967 6.70491 85.3005
lradius 26.987
lwrist 1.14196
lhand -17.0125 21.4825
lfingers 7.12502
lthumb 9.2233 51.2608
rfemur -32.9134 -5.7351 16.1081
rtibia 62.593
rfoot -11.5973 -4.22852
rtoes -3.68222
lfemur 2.8117 -1.09797 -24.9798
ltibia 15.9082
lfoot -14.3274 -7.25629
ltoes 17.749
1215
root 20.6214 17.3836 -22.0486 387.293 86.176 27.4497
lowerback 6.3559 1.17379 -2.72955
upperback 3.89518 1.52118 1.51457
thorax 0.345028 0.742738 3.0011
lowerneck -13.4677 -3.88211 -9.42971
upperneck 39.1325 -2.6222 3.76608
head 16.6047 -1.41238 3.06184
rclavicle 6.4605e-015 1.11319e-014
rhumerus -30.1796 -11.9269 -79.3505
rradius 31.2208
rwrist -12.0636
rhand -18.6051 12.2849
rfingers 7.12502
rthumb 7.68636 -17.5554
lclavicle 6.4605e-015 1.11319e-014
lhumerus -32.9082 6.24747 85.3107
lradius 27.1452
lwrist 1.19361
lhand -16.8545 21.4582
lfingers 7.12502
lthumb 9.37577 51.2296
rfemur -33.3506 -5.77259 16.4662
rtibia 61.0194
rfoot -11.3231 -5.09036
rtoes -3.31372
lfemur 3.04852 -1.34437 -24.9312
ltibia 15.704
lfoot -14.3605 -7.13317
ltoes 19.2192
1216
root 20.6666 17.3785 -22.0448 389.01 86.2604 28.991
lowerback 6.30078 1.05138 -2.8435
upperback 3.84341 1.35097 1.45304
thorax 0.333654 0.656126 3.01275
lowerneck -13.3476 -3.81594 -9.11851
upperneck 38.8747 -2.57397 3.54234
head 16.4173 -1.37958 2.90274
rclavicle -2.98177e-016 7.95139e-016
rhumerus -30.3361 -11.7337 -79.511
rradius 31.109
rwrist -12.3363
rhand -17.8277 12.7965
rfingers 7.12502
rthumb 8.43659 -17.0149
lclavicle -2.98177e-016 7.95139e-016
lhumerus -32.9467 6.19414 85.226
lradius 27.2609
lwrist 1.48385
lhand -17.2225 21.7255
lfingers 7.12502
lthumb 9.02062 51.5126
rfemur -33.8244 -5.92788 16.6574
rtibia 59.3716
rfoot -11.3406 -5.70622
rtoes -6.64506
lfemur 3.15246 -1.35306 -24.944
ltibia 15.441
lfoot -14.2811 -7.36737
ltoes 20.532
